<?xml version="1.0" standalone="no"?>
<!DOCTYPE svg PUBLIC "-//W3C//DTD SVG 20010904//EN"
 "http://www.w3.org/TR/2001/REC-SVG-20010904/DTD/svg10.dtd">
<svg version="1.0" xmlns="http://www.w3.org/2000/svg"
 width="840.000000pt" height="568.000000pt" viewBox="0 0 840.000000 568.000000"
 preserveAspectRatio="xMidYMid meet">

<g transform="translate(0.000000,568.000000) scale(0.100000,-0.100000)"
fill="#000000" stroke="none">
<path d="M2845 5256 c-37 -17 -70 -52 -84 -89 -7 -18 -11 -178 -11 -458 l0
-429 -430 0 c-471 0 -473 0 -522 -58 -38 -46 -45 -102 -18 -156 40 -84 17 -80
520 -86 l445 -5 5 -440 c5 -436 5 -440 28 -476 58 -94 200 -91 259 6 16 28 18
66 23 470 l5 440 445 5 c490 6 471 3 512 69 44 70 25 152 -46 205 -27 20 -41
21 -471 24 l-444 3 -3 444 c-3 430 -4 444 -24 471 -48 64 -126 89 -189 60z"/>
<path d="M4590 4258 c-100 -68 -105 -191 -10 -255 l33 -23 956 0 c936 0 957 0
989 20 100 61 96 207 -8 261 -33 18 -79 19 -981 19 l-946 0 -33 -22z"/>
<path d="M1922 2513 c-61 -30 -91 -96 -77 -170 6 -33 57 -89 426 -458 l419
-420 -411 -410 c-231 -230 -417 -424 -425 -442 -38 -87 18 -191 112 -209 76
-14 92 -1 529 436 l410 410 415 -414 c327 -326 423 -416 453 -426 107 -34 213
63 193 177 -7 34 -55 86 -427 458 l-419 420 410 410 c226 226 417 424 425 442
46 96 -29 213 -138 213 -21 0 -50 -6 -65 -14 -15 -8 -209 -197 -432 -420 -223
-223 -409 -406 -415 -406 -6 0 -192 183 -415 406 -223 223 -417 412 -432 420
-36 19 -95 18 -136 -3z"/>
<path d="M4583 2100 c-36 -22 -73 -86 -73 -126 0 -49 39 -113 81 -134 37 -19
63 -20 981 -20 878 0 945 1 978 18 103 51 108 201 8 262 -32 20 -53 20 -988
20 -930 0 -956 -1 -987 -20z"/>
<path d="M4580 1088 c-39 -27 -70 -81 -70 -122 0 -49 36 -110 79 -134 l39 -22
944 0 c899 0 945 1 978 19 104 54 108 200 8 261 -32 20 -53 20 -989 20 l-956
0 -33 -22z"/>
</g>
</svg>
